#!OML:ASF F:\VICON\USERDATA\INSTALL\rory3\rory3.ASF
:FULLY-SPECIFIED
:DEGREES
839
root 5.54566 17.4168 1.64475 19.6792 2.50743 0.696635
lowerback -11.2143 -0.819439 11.3526
upperback -14.8469 -1.54528 1.25924
thorax -10.311 -1.89742 -4.9525
lowerneck -4.69771 20.0395 10.9279
upperneck 8.3571 26.2326 -1.54097
head 4.80983 13.1826 -0.224537
rclavicle 4.65156e-014 -7.95139e-015
rhumerus -7.63434 -30.3128 32.8935
rradius 111.619
rwrist -64.7457
rhand -5.88828 -43.8355
rfingers 7.12502
rthumb 19.9397 -72.8325
lclavicle 4.65156e-014 -7.95139e-015
lhumerus 20.7284 22.4052 -15.2962
lradius 33.5281
lwrist 55.6124
lhand -22.0877 -14.2425
lfingers 7.12502
lthumb 4.32411 15.6933
rfemur -9.65987 11.8295 -8.67148
rtibia 8.69203
rfoot -15.7102 -22.0186
rtoes 41.6426
lfemur -18.1039 3.38038 -30.3572
ltibia 16.7584
lfoot -17.0018 1.66896
ltoes 8.95761
840
root 5.54746 17.4156 1.64714 19.6776 2.54762 0.67189
lowerback -11.236 -0.814803 11.3883
upperback -14.7988 -1.5462 1.26717
thorax -10.2432 -1.89564 -4.96601
lowerneck -4.80359 20.0261 10.779
upperneck 8.3066 26.2062 -1.49124
head 4.78343 13.1663 -0.194846
rclavicle 5.56597e-015 -3.81667e-014
rhumerus -7.65808 -30.3603 32.8296
rradius 111.563
rwrist -64.5318
rhand -5.66581 -44.0872
rfingers 7.12502
rthumb 20.1536 -73.0618
lclavicle 5.56597e-015 -3.81667e-014
lhumerus 20.9944 22.948 -14.8748
lradius 33.3388
lwrist 55.0962
lhand -22.0897 -14.15
lfingers 7.12502
lthumb 4.32211 15.7859
rfemur -9.65274 11.7968 -8.63186
rtibia 8.72878
rfoot -15.81 -21.9961
rtoes 41.7451
lfemur -18.0907 3.36327 -30.326
ltibia 16.7696
lfoot -16.9919 1.63331
ltoes 8.93147
841
root 5.54325 17.4168 1.64284 19.8754 2.69165 0.818238
lowerback -11.3266 -0.879339 11.1661
upperback -14.8616 -1.62954 1.26145
thorax -10.2626 -1.9178 -4.85148
lowerneck -4.84015 20.043 10.6648
upperneck 8.27024 26.2198 -1.37913
head 4.7487 13.1749 -0.154527
rclavicle 4.37326e-015 1.11319e-014
rhumerus -7.68762 -30.3985 32.8116
rradius 111.53
rwrist -64.6578
rhand -5.5325 -44.2689
rfingers 7.12502
rthumb 20.2817 -73.23
lclavicle 4.37326e-015 1.11319e-014
lhumerus 21.136 23.1586 -14.6893
lradius 33.2909
lwrist 55.0497
lhand -22.3974 -14.2053
lfingers 7.12502
lthumb 4.02503 15.7365
rfemur -9.71083 11.536 -8.73576
rtibia 8.65708
rfoot -16.0764 -21.8342
rtoes 42.268
lfemur -18.345 3.2312 -30.4454
ltibia 16.8029
lfoot -16.9161 1.55125
ltoes 8.91468
842
root 5.54221 17.4164 1.64619 19.9871 2.79253 0.876063
lowerback -11.3355 -0.911145 11.1062
upperback -15.0307 -1.65837 1.2557
thorax -10.4637 -1.94232 -4.81854
lowerneck -4.51788 20.0246 10.6804
upperneck 8.2743 26.222 -1.2731
head 4.68855 13.1883 -0.162735
rclavicle 4.37326e-015 1.51076e-014
rhumerus -7.60196 -30.1799 32.813
rradius 111.589
rwrist -65.0017
rhand -5.53836 -44.455
rfingers 7.12502
rthumb 20.2761 -73.4166
lclavicle 4.37326e-015 1.51076e-014
lhumerus 21.1289 22.7964 -14.7728
lradius 33.3586
lwrist 55.2681
lhand -22.4165 -14.3199
lfingers 7.12502
lthumb 4.00656 15.6222
rfemur -9.68864 11.3772 -8.75805
rtibia 8.58857
rfoot -16.6126 -21.4334
rtoes 43.0546
lfemur -18.4586 3.12774 -30.482
ltibia 16.8285
lfoot -16.9567 1.52687
ltoes 8.81256
843
root 5.54558 17.4145 1.65574 19.9617 2.85838 0.826346
lowerback -11.369 -0.901196 11.2282
upperback -15.09 -1.65116 1.24374
thorax -10.5284 -1.95789 -4.89724
lowerneck -4.37473 19.9972 10.7239
upperneck 8.35844 26.1985 -1.23326
head 4.69228 13.1837 -0.168131
rclavicle 2.78299e-015 3.18055e-015
rhumerus -7.51244 -30.0153 32.7654
rradius 111.605
rwrist -65.1497
rhand -6.07347 -44.7179
rfingers 7.12502
rthumb 19.7617 -73.7333
lclavicle 2.78299e-015 3.18055e-015
lhumerus 21.2499 22.7974 -14.647
lradius 33.3045
lwrist 55.1174
lhand -22.3643 -14.3337
lfingers 7.12502
lthumb 4.05698 15.6075
rfemur -9.54698 11.344 -8.66913
rtibia 8.53973
rfoot -16.5595 -21.3905
rtoes 42.9404
lfemur -18.3936 3.16076 -30.4332
ltibia 16.8533
lfoot -17.0386 1.4768
ltoes 8.44463
844
root 5.54739 17.4139 1.66035 19.9564 2.91395 0.813927
lowerback -11.411 -0.902353 11.2793
upperback -15.0543 -1.66381 1.22856
thorax -10.4687 -1.96644 -4.94493
lowerneck -4.5222 20.0169 10.6562
upperneck 8.42188 26.2041 -1.14184
head 4.71426 13.1871 -0.119205
rclavicle 3.57812e-015 3.97569e-015
rhumerus -7.53848 -29.955 32.7583
rradius 111.624
rwrist -65.1208
rhand -6.90854 -45.0412
rfingers 7.12502
rthumb 18.9588 -74.1372
lclavicle 3.57812e-015 3.97569e-015
lhumerus 21.5333 23.3483 -14.247
lradius 33.0942
lwrist 54.5255
lhand -21.5001 -14.3031
lfingers 7.12502
lthumb 4.89143 15.6204
rfemur -9.42097 11.2983 -8.62651
rtibia 8.42041
rfoot -16.0519 -21.743
rtoes 42.2193
lfemur -18.4021 3.23865 -30.4296
ltibia 16.9045
lfoot -17.0856 1.38786
ltoes 8.28094
845
root 5.54653 17.414 1.65859 19.9991 2.93349 0.81699
lowerback -11.455 -0.899764 11.2742
upperback -14.9771 -1.67258 1.21098
thorax -10.3514 -1.96292 -4.96621
lowerneck -4.81429 20.041 10.6131
upperneck 8.53088 26.2013 -1.08683
head 4.7803 13.1826 -0.0638782
rclavicle 2.5842e-014 -8.74653e-015
rhumerus -7.67918 -29.9671 32.7587
rradius 111.643
rwrist -64.993
rhand -7.48954 -45.0869
rfingers 7.12502
rthumb 18.3999 -74.2366
lclavicle 2.5842e-014 -8.74653e-015
lhumerus 21.8109 24.0258 -13.869
lradius 32.8753
lwrist 53.8975
lhand -20.1015 -14.2071
lfingers 7.12502
lthumb 6.24181 15.6809
rfemur -9.41707 11.2548 -8.62319
rtibia 8.35301
rfoot -16.8381 -21.22
rtoes 43.4953
lfemur -18.4747 3.19097 -30.4174
ltibia 16.9321
lfoot -17.0865 1.38944
ltoes 8.37476
846
root 5.54502 17.4147 1.65625 20.032 2.98684 0.838483
lowerback -11.6338 -0.888662 11.2684
upperback -14.8344 -1.6943 1.16097
thorax -10.0818 -1.95827 -5.02995
lowerneck -5.06881 20.0386 10.6553
upperneck 8.56824 26.1711 -1.15463
head 4.84394 13.1604 -0.0581066
rclavicle 1.63003e-014 -3.89618e-014
rhumerus -7.86895 -30.0846 32.7323
rradius 111.561
rwrist -64.7711
rhand -7.57078 -44.8842
rfingers 7.12502
rthumb 18.3218 -74.0413
lclavicle 1.63003e-014 -3.89618e-014
lhumerus 21.9796 24.5484 -13.697
lradius 32.8042
lwrist 53.7589
lhand -19.8126 -14.247
lfingers 7.12502
lthumb 6.52072 15.6326
rfemur -9.44112 11.1852 -8.60828
rtibia 8.4016
rfoot -17.6607 -20.5449
rtoes 44.7324
lfemur -18.5026 3.0457 -30.3939
ltibia 16.9268
lfoot -17.044 1.42395
ltoes 8.49929
847
root 5.54419 17.4145 1.6582 20.0607 3.0323 0.921935
lowerback -11.5497 -0.947019 11.152
upperback -14.9433 -1.74668 1.17547
thorax -10.2599 -1.98401 -4.94352
lowerneck -4.95347 20.0251 10.6845
upperneck 8.63458 26.1651 -1.13232
head 4.84776 13.1624 -0.0631542
rclavicle 3.02153e-014 -2.62396e-014
rhumerus -7.6664 -29.9538 32.5811
rradius 111.448
rwrist -64.5817
rhand -7.19207 -44.61
rfingers 7.12502
rthumb 18.6861 -73.7325
lclavicle 3.02153e-014 -2.62396e-014
lhumerus 21.7172 24.0336 -14.0546
lradius 32.9898
lwrist 54.1658
lhand -20.1355 -14.3815
lfingers 7.12502
lthumb 6.20903 15.5075
rfemur -9.41458 11.1039 -8.66885
rtibia 8.38275
rfoot -16.6907 -21.3029
rtoes 43.3181
lfemur -18.5112 2.97093 -30.4577
ltibia 16.9481
lfoot -17.055 1.40462
ltoes 8.79851
848
root 5.54298 17.4142 1.65842 19.976 2.90696 0.909467
lowerback -11.4199 -0.922403 11.1331
upperback -14.9425 -1.69677 1.17009
thorax -10.322 -1.96041 -4.93426
lowerneck -4.72439 19.994 10.7012
upperneck 8.49539 26.1496 -1.17446
head 4.77576 13.1564 -0.110336
rclavicle 8.70677e-014 6.36111e-015
rhumerus -7.65309 -29.8447 32.5313
rradius 111.383
rwrist -64.3528
rhand -6.77508 -44.3717
rfingers 7.12502
rthumb 19.0871 -73.4551
lclavicle 8.70677e-014 6.36111e-015
lhumerus 21.4533 23.4833 -14.5319
lradius 33.204
lwrist 54.8041
lhand -19.9373 -14.2333
lfingers 7.12502
lthumb 6.40038 15.65
rfemur -9.39403 11.2448 -8.6947
rtibia 8.32835
rfoot -16.0922 -21.8015
rtoes 42.4289
lfemur -18.445 3.07415 -30.4688
ltibia 16.9735
lfoot -17.0801 1.4361
ltoes 9.06286
849
root 5.54499 17.4163 1.65759 19.7445 2.72904 0.724459
lowerback -11.0317 -0.848189 11.3197
upperback -14.9906 -1.5506 1.17756
thorax -10.5931 -1.92105 -5.01331
lowerneck -4.18403 19.9056 10.8689
upperneck 8.34524 26.0935 -1.3064
head 4.68181 13.1358 -0.230138
rclavicle -5.1684e-015 1.19271e-014
rhumerus -7.63813 -29.5592 32.5474
rradius 111.425
rwrist -64.1885
rhand -6.57905 -44.2619
rfingers 7.12502
rthumb 19.2756 -73.3266
lclavicle -5.1684e-015 1.19271e-014
lhumerus 21.5225 23.2556 -14.5531
lradius 33.2525
lwrist 55.0793
lhand -19.8387 -13.9862
lfingers 7.12502
lthumb 6.49556 15.8942
rfemur -9.33443 11.5505 -8.54088
rtibia 8.34963
rfoot -16.4906 -21.5489
rtoes 43.0017
lfemur -18.2548 3.24734 -30.3118
ltibia 16.9856
lfoot -17.1037 1.54632
ltoes 8.96314
